<svg width="78" height="16" viewBox="0 0 78 16" fill="none" xmlns="http://www.w3.org/2000/svg">
<g clip-path="url(#clip0_3909_5213)">
<path fill-rule="evenodd" clip-rule="evenodd" d="M5.50101 0.130217L10.2267 4.79044C10.4028 4.96407 10.4028 5.24557 10.2267 5.41919L5.49536 10.085C5.3193 10.2586 5.03384 10.2586 4.85778 10.085L0.132048 5.42476C-0.0440159 5.25114 -0.0440159 4.96964 0.132048 4.79602L4.86343 0.130217C5.03949 -0.0434058 5.32495 -0.0434058 5.50101 0.130217ZM11.2709 5.91531L15.9966 10.5755C16.1727 10.7492 16.1727 11.0307 15.9966 11.2043L11.2652 15.8701C11.0892 16.0437 10.8037 16.0437 10.6277 15.8701L5.90192 11.2099C5.72586 11.0362 5.72586 10.7547 5.90192 10.5811L10.6333 5.91531C10.8094 5.74169 11.0948 5.74169 11.2709 5.91531ZM17.0408 0.130217L21.7665 4.79044C21.9426 4.96407 21.9426 5.24557 21.7665 5.41919L17.0351 10.085C16.859 10.2586 16.5736 10.2586 16.3975 10.085L11.6718 5.42476C11.4957 5.25114 11.4957 4.96964 11.6718 4.79602L16.4032 0.130217C16.5792 -0.0434058 16.8647 -0.0434058 17.0408 0.130217Z" fill="#0019C8"/>
<mask id="mask0_3909_5213" style="mask-type:luminance" maskUnits="userSpaceOnUse" x="0" y="0" width="22" height="16">
<path fill-rule="evenodd" clip-rule="evenodd" d="M5.50101 0.130217L10.2267 4.79044C10.4028 4.96407 10.4028 5.24557 10.2267 5.41919L5.49536 10.085C5.3193 10.2586 5.03384 10.2586 4.85778 10.085L0.132048 5.42476C-0.0440159 5.25114 -0.0440159 4.96964 0.132048 4.79602L4.86343 0.130217C5.03949 -0.0434058 5.32495 -0.0434058 5.50101 0.130217ZM11.2709 5.91531L15.9966 10.5755C16.1727 10.7492 16.1727 11.0307 15.9966 11.2043L11.2652 15.8701C11.0892 16.0437 10.8037 16.0437 10.6277 15.8701L5.90192 11.2099C5.72586 11.0362 5.72586 10.7547 5.90192 10.5811L10.6333 5.91531C10.8094 5.74169 11.0948 5.74169 11.2709 5.91531ZM17.0408 0.130217L21.7665 4.79044C21.9426 4.96407 21.9426 5.24557 21.7665 5.41919L17.0351 10.085C16.859 10.2586 16.5736 10.2586 16.3975 10.085L11.6718 5.42476C11.4957 5.25114 11.4957 4.96964 11.6718 4.79602L16.4032 0.130217C16.5792 -0.0434058 16.8647 -0.0434058 17.0408 0.130217Z" fill="white"/>
</mask>
<g mask="url(#mask0_3909_5213)">
</g>
<path fill-rule="evenodd" clip-rule="evenodd" d="M64.3981 5.0293C62.6637 5.0293 61.2848 6.39226 61.2848 8.08538C61.2848 9.7785 62.6637 11.1245 64.3981 11.1245C66.1325 11.1245 67.52 9.7785 67.52 8.08538C67.52 6.39226 66.1325 5.0293 64.3981 5.0293ZM64.3978 9.77033C63.4525 9.77033 62.6721 9.00843 62.6721 8.08568C62.6721 7.15446 63.4525 6.38409 64.3978 6.38409C65.3517 6.38409 66.1322 7.15446 66.1322 8.08568C66.1322 9.00843 65.3517 9.77033 64.3978 9.77033ZM32.0687 11.0319L29.3631 5.33455C29.311 5.2245 29.3804 5.11445 29.5105 5.11445H30.6639C30.7332 5.11445 30.7939 5.16524 30.8113 5.20757L32.2422 8.29752H32.2942L33.7251 5.20757C33.7424 5.16524 33.8031 5.11445 33.8725 5.11445H35.0258C35.1559 5.11445 35.2253 5.2245 35.1733 5.33455L32.4503 11.0319C32.4243 11.0827 32.3722 11.125 32.3029 11.125H32.2161C32.1468 11.125 32.0947 11.0827 32.0687 11.0319ZM40.6745 11.0399C40.5444 11.0399 40.4751 10.9298 40.5271 10.8198L43.2414 5.12242C43.2674 5.07162 43.3281 5.0293 43.3888 5.0293H43.4756C43.5363 5.0293 43.597 5.07162 43.623 5.12242L46.3373 10.8198C46.3893 10.9298 46.3199 11.0399 46.1899 11.0399H45.2273C45.0712 11.0399 45.0018 10.9891 44.9238 10.8282L44.6116 10.1595H42.2528L41.9406 10.8367C41.8973 10.9383 41.8019 11.0399 41.6284 11.0399H40.6745ZM42.7726 9.00695H44.0908L43.4317 7.61013H43.423L42.7726 9.00695ZM52.957 10.8795V5.27529C52.957 5.19064 53.035 5.11445 53.1217 5.11445H54.1624C54.2491 5.11445 54.3271 5.19064 54.3271 5.27529V10.8795C54.3271 10.9642 54.2491 11.0404 54.1624 11.0404H53.1217C53.035 11.0404 52.957 10.9642 52.957 10.8795ZM75.2237 10.8795V6.35889H73.9836C73.8882 6.35889 73.8188 6.2827 73.8188 6.19804V5.27529C73.8188 5.19064 73.8882 5.11445 73.9836 5.11445H77.834C77.9293 5.11445 77.9987 5.19064 77.9987 5.27529V6.19804C77.9987 6.2827 77.9293 6.35889 77.834 6.35889H76.5939V10.8795C76.5939 10.9642 76.5158 11.0404 76.4291 11.0404H75.3885C75.3017 11.0404 75.2237 10.9642 75.2237 10.8795Z" fill="#0019C8"/>
</g>
<defs>
<clipPath id="clip0_3909_5213">
<rect width="78" height="16" fill="white"/>
</clipPath>
</defs>
</svg>